<svg width="58" height="48" viewBox="0 0 58 48" fill="none" xmlns="http://www.w3.org/2000/svg">
<g opacity="0.8">
<mask id="mask0_6_3" style="mask-type:alpha" maskUnits="userSpaceOnUse" x="0" y="0" width="58" height="48">
<rect y="-3.05176e-05" width="57.0667" height="48" fill="black"/>
</mask>
<g mask="url(#mask0_6_3)">
<path fill-rule="evenodd" clip-rule="evenodd" d="M26.4 -3.05176e-05H-2.66666C2.69048 -3.05176e-05 7.3097 3.15935 9.4294 7.71651L14.0771 17.8666L27.8558 47.9576L34.2972 31.8912L23.2293 7.72016C22.8693 7.00202 22.6667 6.19132 22.6667 5.33331C22.6667 2.94523 24.2362 0.923733 26.4 0.244128V-3.05176e-05Z" fill="#9678B6"/>
<path d="M57.0399 48.0078L49.3792 31.2533L49.1572 31.3548C49.4389 33.6053 48.2531 35.8733 46.0813 36.8663C45.301 37.2231 44.4794 37.376 43.6766 37.3472L37.6128 37.3325L33.3334 48.0078H57.0399Z" fill="#D9D9D9"/>
<path fill-rule="evenodd" clip-rule="evenodd" d="M32.6612 7.92715L38.656 21.0191L45.9231 2.89296C46.6115 1.55769 47.847 0.550537 49.3334 0.167989V-3.05176e-05H37.3333C34.3878 -3.05176e-05 32 2.38779 32 5.33331C32.0413 6.39117 32.2074 6.95466 32.6612 7.92715Z" fill="#D9D9D9"/>
<path fill-rule="evenodd" clip-rule="evenodd" d="M17.4892 37.3333L16.8 38.9203L16.545 39.4773C14.4803 43.7533 10.4276 46.9051 5.60001 47.7651V48H17.9983V47.9521C20.0529 47.9521 21.4148 45.8218 20.5524 43.957L17.4892 37.3333Z" fill="#D9D9D9"/>
</g>
</g>
</svg>
